<svg class="marks" width="302" height="353" viewBox="0 0 302 353" version="1.1" xmlns="http://www.w3.org/2000/svg" xmlns:xlink="http://www.w3.org/1999/xlink"><defs><linearGradient id="gradient_0" x1="0" x2="0" y1="1" y2="0"><stop offset="0" stop-color="rgb(239, 249, 189)"></stop><stop offset="0.10187110187110188" stop-color="rgb(218, 241, 180)"></stop><stop offset="0.20582120582120583" stop-color="rgb(187, 228, 181)"></stop><stop offset="0.3097713097713098" stop-color="rgb(144, 211, 185)"></stop><stop offset="0.41372141372141374" stop-color="rgb(100, 195, 191)"></stop><stop offset="0.5176715176715176" stop-color="rgb(65, 176, 194)"></stop><stop offset="0.6216216216216216" stop-color="rgb(42, 152, 190)"></stop><stop offset="0.7255717255717256" stop-color="rgb(33, 122, 180)"></stop><stop offset="0.8295218295218295" stop-color="rgb(34, 91, 166)"></stop><stop offset="0.9334719334719335" stop-color="rgb(33, 64, 148)"></stop><stop offset="1" stop-color="rgb(28, 49, 133)"></stop></linearGradient></defs><g transform="translate(86,5)"><g class="mark-group role-frame root"><g transform="translate(0,0)"><path class="background" d="M0.5,0.5h100v300h-100Z" style="fill: none; stroke: #ddd;"></path><g><g class="mark-rect role-mark marks"><path d="M0,240h50v60h-50Z" style="fill: rgb(230, 245, 185);"></path><path d="M0,0h50v60h-50Z" style="fill: rgb(28, 49, 133);"></path><path d="M50,0h50v60h-50Z" style="fill: rgb(41, 151, 190);"></path><path d="M0,120h50v60h-50Z" style="fill: rgb(234, 247, 187);"></path><path d="M50,60h50v60h-50Z" style="fill: rgb(207, 236, 180);"></path><path d="M0,60h50v60h-50Z" style="fill: rgb(187, 228, 181);"></path><path d="M50,240h50v60h-50Z" style="fill: rgb(237, 248, 188);"></path><path d="M0,180h50v60h-50Z" style="fill: rgb(238, 249, 188);"></path><path d="M50,120h50v60h-50Z" style="fill: rgb(238, 249, 189);"></path><path d="M50,180h50v60h-50Z" style="fill: rgb(239, 249, 189);"></path></g><g class="mark-group role-legend"><g transform="translate(118,0)"><path class="background" d="M0,0h93v216h-93Z" style="pointer-events: none; fill: none;"></path><g><g class="mark-group role-legend-entry"><g transform="translate(0,16)"><path class="background" d="M0,0h0v0h0Z" style="pointer-events: none; fill: none;"></path><g><g class="mark-rect role-legend-gradient" style="pointer-events: none;"><path d="M0,0h16v200h-16Z" style="fill: url(#gradient_0); stroke: #ddd; stroke-width: 0; opacity: 1;"></path></g><g class="mark-text role-legend-label" style="pointer-events: none;"><text text-anchor="start" transform="translate(18,161.8357588357588)" style="font-family: sans-serif; font-size: 10px; fill: #000; opacity: 1;">100</text><text text-anchor="start" transform="translate(18,120.25571725571724)" style="font-family: sans-serif; font-size: 10px; fill: #000; opacity: 1;">200</text><text text-anchor="start" transform="translate(18,78.67567567567568)" style="font-family: sans-serif; font-size: 10px; fill: #000; opacity: 1;">300</text><text text-anchor="start" transform="translate(18,37.0956340956341)" style="font-family: sans-serif; font-size: 10px; fill: #000; opacity: 1;">400</text></g></g></g></g><g class="mark-text role-legend-title" style="pointer-events: none;"><text text-anchor="start" transform="translate(0,9)" style="font-family: sans-serif; font-size: 11px; font-weight: bold; fill: #000; opacity: 1;">Count of Records</text></g></g></g></g><g class="mark-group role-axis"><g transform="translate(0.5,300.5)"><path class="background" d="M0,0h0v0h0Z" style="pointer-events: none; fill: none;"></path><g><g class="mark-rule role-axis-tick" style="pointer-events: none;"><line transform="translate(24,0)" x2="0" y2="5" style="fill: none; stroke: #888; stroke-width: 1; opacity: 1;"></line><line transform="translate(74,0)" x2="0" y2="5" style="fill: none; stroke: #888; stroke-width: 1; opacity: 1;"></line></g><g class="mark-text role-axis-label" style="pointer-events: none;"><text text-anchor="end" transform="translate(24,7) rotate(270) translate(0,3)" style="font-family: sans-serif; font-size: 10px; fill: #000; opacity: 1;">NO</text><text text-anchor="end" transform="translate(74,7) rotate(270) translate(0,3)" style="font-family: sans-serif; font-size: 10px; fill: #000; opacity: 1;">YES</text></g><g class="mark-rule role-axis-domain" style="pointer-events: none;"><line transform="translate(0,0)" x2="100" y2="0" style="fill: none; stroke: #888; stroke-width: 1; opacity: 1;"></line></g><g class="mark-text role-axis-title" style="pointer-events: none;"><text text-anchor="middle" transform="translate(50,40.009765625)" style="font-family: sans-serif; font-size: 11px; font-weight: bold; fill: #000; opacity: 1;">Readmitted Status</text></g></g></g></g><g class="mark-group role-axis"><g transform="translate(0.5,0.5)"><path class="background" d="M0,0h0v0h0Z" style="pointer-events: none; fill: none;"></path><g><g class="mark-rule role-axis-tick" style="pointer-events: none;"><line transform="translate(0,29)" x2="-5" y2="0" style="fill: none; stroke: #888; stroke-width: 1; opacity: 1;"></line><line transform="translate(0,89)" x2="-5" y2="0" style="fill: none; stroke: #888; stroke-width: 1; opacity: 1;"></line><line transform="translate(0,149)" x2="-5" y2="0" style="fill: none; stroke: #888; stroke-width: 1; opacity: 1;"></line><line transform="translate(0,209)" x2="-5" y2="0" style="fill: none; stroke: #888; stroke-width: 1; opacity: 1;"></line><line transform="translate(0,269)" x2="-5" y2="0" style="fill: none; stroke: #888; stroke-width: 1; opacity: 1;"></line></g><g class="mark-text role-axis-label" style="pointer-events: none;"><text text-anchor="end" transform="translate(-7,32)" style="font-family: sans-serif; font-size: 10px; fill: #000; opacity: 1;">Caucasian</text><text text-anchor="end" transform="translate(-7,92)" style="font-family: sans-serif; font-size: 10px; fill: #000; opacity: 1;">AfricanAmerican</text><text text-anchor="end" transform="translate(-7,152)" style="font-family: sans-serif; font-size: 10px; fill: #000; opacity: 1;">Hispanic</text><text text-anchor="end" transform="translate(-7,212)" style="font-family: sans-serif; font-size: 10px; fill: #000; opacity: 1;">Asian</text><text text-anchor="end" transform="translate(-7,272)" style="font-family: sans-serif; font-size: 10px; fill: #000; opacity: 1;">Other</text></g><g class="mark-rule role-axis-domain" style="pointer-events: none;"><line transform="translate(0,0)" x2="0" y2="300" style="fill: none; stroke: #888; stroke-width: 1; opacity: 1;"></line></g></g></g></g></g></g></g></g></svg>