<svg class="marks" width="1053" height="217" viewBox="0 0 1053 217" version="1.1" xmlns="http://www.w3.org/2000/svg" xmlns:xlink="http://www.w3.org/1999/xlink"><defs><linearGradient id="gradient_0" x1="0" x2="0" y1="1" y2="0"><stop offset="0" stop-color="rgb(239, 249, 189)"></stop><stop offset="0.09523809523809523" stop-color="rgb(220, 241, 180)"></stop><stop offset="0.19875776397515527" stop-color="rgb(189, 229, 181)"></stop><stop offset="0.3022774327122153" stop-color="rgb(147, 213, 185)"></stop><stop offset="0.4057971014492754" stop-color="rgb(103, 196, 190)"></stop><stop offset="0.5093167701863354" stop-color="rgb(67, 178, 194)"></stop><stop offset="0.6128364389233955" stop-color="rgb(43, 154, 191)"></stop><stop offset="0.7163561076604554" stop-color="rgb(33, 125, 182)"></stop><stop offset="0.8198757763975155" stop-color="rgb(33, 93, 167)"></stop><stop offset="0.9233954451345756" stop-color="rgb(33, 66, 151)"></stop><stop offset="1" stop-color="rgb(28, 49, 133)"></stop></linearGradient></defs><g transform="translate(53,21)"><g class="mark-group role-frame root"><g transform="translate(0,0)"><path class="background" d="M0,0h0v120h0Z" style="fill: none;"></path><g><g class="mark-group role-scope concat_0_group"><g transform="translate(0,0)"><path class="background" d="M0.5,0.5h100v120h-100Z" style="fill: none; stroke: #ddd;"></path><g><g class="mark-rect role-mark concat_0_marks"><path d="M50,60h25v60h-25Z" style="fill: rgb(37, 140, 187);"></path><path d="M75,60h25v60h-25Z" style="fill: rgb(233, 247, 186);"></path><path d="M25,60h25v60h-25Z" style="fill: rgb(226, 244, 183);"></path><path d="M50,0h25v60h-25Z" style="fill: rgb(28, 49, 133);"></path><path d="M75,0h25v60h-25Z" style="fill: rgb(226, 244, 183);"></path><path d="M25,0h25v60h-25Z" style="fill: rgb(222, 242, 181);"></path><path d="M0,60h25v60h-25Z" style="fill: rgb(232, 246, 186);"></path><path d="M0,0h25v60h-25Z" style="fill: rgb(228, 245, 184);"></path></g><g class="mark-group role-axis"><g transform="translate(0.5,120.5)"><path class="background" d="M0,0h0v0h0Z" style="pointer-events: none; fill: none;"></path><g><g class="mark-rule role-axis-tick" style="pointer-events: none;"><line transform="translate(12,0)" x2="0" y2="5" style="fill: none; stroke: #888; stroke-width: 1; opacity: 1;"></line><line transform="translate(37,0)" x2="0" y2="5" style="fill: none; stroke: #888; stroke-width: 1; opacity: 1;"></line><line transform="translate(62,0)" x2="0" y2="5" style="fill: none; stroke: #888; stroke-width: 1; opacity: 1;"></line><line transform="translate(87,0)" x2="0" y2="5" style="fill: none; stroke: #888; stroke-width: 1; opacity: 1;"></line></g><g class="mark-text role-axis-label" style="pointer-events: none;"><text text-anchor="end" transform="translate(11.5,7) rotate(270) translate(0,3)" style="font-family: sans-serif; font-size: 10px; fill: #000; opacity: 1;">&gt;7</text><text text-anchor="end" transform="translate(36.5,7) rotate(270) translate(0,3)" style="font-family: sans-serif; font-size: 10px; fill: #000; opacity: 1;">&gt;8</text><text text-anchor="end" transform="translate(61.5,7) rotate(270) translate(0,3)" style="font-family: sans-serif; font-size: 10px; fill: #000; opacity: 1;">None</text><text text-anchor="end" transform="translate(86.5,7) rotate(270) translate(0,3)" style="font-family: sans-serif; font-size: 10px; fill: #000; opacity: 1;">Norm</text></g><g class="mark-rule role-axis-domain" style="pointer-events: none;"><line transform="translate(0,0)" x2="100" y2="0" style="fill: none; stroke: #888; stroke-width: 1; opacity: 1;"></line></g><g class="mark-text role-axis-title" style="pointer-events: none;"><text text-anchor="middle" transform="translate(50,52)" style="font-family: sans-serif; font-size: 11px; font-weight: bold; fill: #000; opacity: 1;">Hemoglobin A1C Levels</text></g></g></g></g><g class="mark-group role-axis"><g transform="translate(0.5,0.5)"><path class="background" d="M0,0h0v0h0Z" style="pointer-events: none; fill: none;"></path><g><g class="mark-rule role-axis-tick" style="pointer-events: none;"><line transform="translate(0,29)" x2="-5" y2="0" style="fill: none; stroke: #888; stroke-width: 1; opacity: 1;"></line><line transform="translate(0,89)" x2="-5" y2="0" style="fill: none; stroke: #888; stroke-width: 1; opacity: 1;"></line></g><g class="mark-text role-axis-label" style="pointer-events: none;"><text text-anchor="end" transform="translate(-7,32)" style="font-family: sans-serif; font-size: 10px; fill: #000; opacity: 1;">NO</text><text text-anchor="end" transform="translate(-7,92)" style="font-family: sans-serif; font-size: 10px; fill: #000; opacity: 1;">YES</text></g><g class="mark-rule role-axis-domain" style="pointer-events: none;"><line transform="translate(0,0)" x2="0" y2="120" style="fill: none; stroke: #888; stroke-width: 1; opacity: 1;"></line></g><g class="mark-text role-axis-title" style="pointer-events: none;"><text text-anchor="middle" transform="translate(-35,60) rotate(-90) translate(0,-2)" style="font-family: sans-serif; font-size: 11px; font-weight: bold; fill: #000; opacity: 1;">Readmitted Status</text></g></g></g></g></g></g></g><g class="mark-group role-scope concat_1_group"><g transform="translate(281,0)"><path class="background" d="M0.5,0.5h100v120h-100Z" style="fill: none; stroke: #ddd;"></path><g><g class="mark-rect role-mark concat_1_marks"><path d="M25,60h25v60h-25Z" style="fill: rgb(41, 150, 190);"></path><path d="M25,0h25v60h-25Z" style="fill: rgb(30, 56, 140);"></path><path d="M50,0h25v60h-25Z" style="fill: rgb(179, 225, 182);"></path><path d="M50,60h25v60h-25Z" style="fill: rgb(199, 233, 181);"></path><path d="M75,0h25v60h-25Z" style="fill: rgb(238, 249, 188);"></path><path d="M0,0h25v60h-25Z" style="fill: rgb(238, 249, 188);"></path><path d="M75,60h25v60h-25Z" style="fill: rgb(238, 249, 189);"></path><path d="M0,60h25v60h-25Z" style="fill: rgb(239, 249, 189);"></path></g><g class="mark-group role-axis"><g transform="translate(0.5,120.5)"><path class="background" d="M0,0h0v0h0Z" style="pointer-events: none; fill: none;"></path><g><g class="mark-rule role-axis-tick" style="pointer-events: none;"><line transform="translate(12,0)" x2="0" y2="5" style="fill: none; stroke: #888; stroke-width: 1; opacity: 1;"></line><line transform="translate(37,0)" x2="0" y2="5" style="fill: none; stroke: #888; stroke-width: 1; opacity: 1;"></line><line transform="translate(62,0)" x2="0" y2="5" style="fill: none; stroke: #888; stroke-width: 1; opacity: 1;"></line><line transform="translate(87,0)" x2="0" y2="5" style="fill: none; stroke: #888; stroke-width: 1; opacity: 1;"></line></g><g class="mark-text role-axis-label" style="pointer-events: none;"><text text-anchor="end" transform="translate(11.5,7) rotate(270) translate(0,3)" style="font-family: sans-serif; font-size: 10px; fill: #000; opacity: 1;">Down</text><text text-anchor="end" transform="translate(36.5,7) rotate(270) translate(0,3)" style="font-family: sans-serif; font-size: 10px; fill: #000; opacity: 1;">No</text><text text-anchor="end" transform="translate(61.5,7) rotate(270) translate(0,3)" style="font-family: sans-serif; font-size: 10px; fill: #000; opacity: 1;">Steady</text><text text-anchor="end" transform="translate(86.5,7) rotate(270) translate(0,3)" style="font-family: sans-serif; font-size: 10px; fill: #000; opacity: 1;">Up</text></g><g class="mark-rule role-axis-domain" style="pointer-events: none;"><line transform="translate(0,0)" x2="100" y2="0" style="fill: none; stroke: #888; stroke-width: 1; opacity: 1;"></line></g><g class="mark-text role-axis-title" style="pointer-events: none;"><text text-anchor="middle" transform="translate(50,68)" style="font-family: sans-serif; font-size: 11px; font-weight: bold; fill: #000; opacity: 1;">Prescribed Metformin or Changed Dosage</text></g></g></g></g><g class="mark-group role-axis"><g transform="translate(0.5,0.5)"><path class="background" d="M0,0h0v0h0Z" style="pointer-events: none; fill: none;"></path><g><g class="mark-rule role-axis-tick" style="pointer-events: none;"><line transform="translate(0,29)" x2="-5" y2="0" style="fill: none; stroke: #888; stroke-width: 1; opacity: 1;"></line><line transform="translate(0,89)" x2="-5" y2="0" style="fill: none; stroke: #888; stroke-width: 1; opacity: 1;"></line></g><g class="mark-text role-axis-label" style="pointer-events: none;"><text text-anchor="end" transform="translate(-7,32)" style="font-family: sans-serif; font-size: 10px; fill: #000; opacity: 1;">NO</text><text text-anchor="end" transform="translate(-7,92)" style="font-family: sans-serif; font-size: 10px; fill: #000; opacity: 1;">YES</text></g><g class="mark-rule role-axis-domain" style="pointer-events: none;"><line transform="translate(0,0)" x2="0" y2="120" style="fill: none; stroke: #888; stroke-width: 1; opacity: 1;"></line></g><g class="mark-text role-axis-title" style="pointer-events: none;"><text text-anchor="middle" transform="translate(-35,60) rotate(-90) translate(0,-2)" style="font-family: sans-serif; font-size: 11px; font-weight: bold; fill: #000; opacity: 1;">Readmitted Status</text></g></g></g></g></g></g></g><g class="mark-group role-scope concat_2_group"><g transform="translate(628,0)"><path class="background" d="M0.5,0.5h100v120h-100Z" style="fill: none; stroke: #ddd;"></path><g><g class="mark-rect role-mark concat_2_marks"><path d="M50,60h25v60h-25Z" style="fill: rgb(171, 222, 183);"></path><path d="M25,60h25v60h-25Z" style="fill: rgb(108, 198, 190);"></path><path d="M0,60h25v60h-25Z" style="fill: rgb(220, 242, 181);"></path><path d="M50,0h25v60h-25Z" style="fill: rgb(112, 200, 189);"></path><path d="M25,0h25v60h-25Z" style="fill: rgb(43, 156, 191);"></path><path d="M75,0h25v60h-25Z" style="fill: rgb(219, 241, 180);"></path><path d="M75,60h25v60h-25Z" style="fill: rgb(225, 244, 183);"></path><path d="M0,0h25v60h-25Z" style="fill: rgb(215, 239, 180);"></path></g><g class="mark-group role-axis"><g transform="translate(0.5,120.5)"><path class="background" d="M0,0h0v0h0Z" style="pointer-events: none; fill: none;"></path><g><g class="mark-rule role-axis-tick" style="pointer-events: none;"><line transform="translate(12,0)" x2="0" y2="5" style="fill: none; stroke: #888; stroke-width: 1; opacity: 1;"></line><line transform="translate(37,0)" x2="0" y2="5" style="fill: none; stroke: #888; stroke-width: 1; opacity: 1;"></line><line transform="translate(62,0)" x2="0" y2="5" style="fill: none; stroke: #888; stroke-width: 1; opacity: 1;"></line><line transform="translate(87,0)" x2="0" y2="5" style="fill: none; stroke: #888; stroke-width: 1; opacity: 1;"></line></g><g class="mark-text role-axis-label" style="pointer-events: none;"><text text-anchor="end" transform="translate(11.5,7) rotate(270) translate(0,3)" style="font-family: sans-serif; font-size: 10px; fill: #000; opacity: 1;">Down</text><text text-anchor="end" transform="translate(36.5,7) rotate(270) translate(0,3)" style="font-family: sans-serif; font-size: 10px; fill: #000; opacity: 1;">No</text><text text-anchor="end" transform="translate(61.5,7) rotate(270) translate(0,3)" style="font-family: sans-serif; font-size: 10px; fill: #000; opacity: 1;">Steady</text><text text-anchor="end" transform="translate(86.5,7) rotate(270) translate(0,3)" style="font-family: sans-serif; font-size: 10px; fill: #000; opacity: 1;">Up</text></g><g class="mark-rule role-axis-domain" style="pointer-events: none;"><line transform="translate(0,0)" x2="100" y2="0" style="fill: none; stroke: #888; stroke-width: 1; opacity: 1;"></line></g><g class="mark-text role-axis-title" style="pointer-events: none;"><text text-anchor="middle" transform="translate(50,68)" style="font-family: sans-serif; font-size: 11px; font-weight: bold; fill: #000; opacity: 1;">Prescribed Insulin or Changed Dosage</text></g></g></g></g><g class="mark-group role-axis"><g transform="translate(0.5,0.5)"><path class="background" d="M0,0h0v0h0Z" style="pointer-events: none; fill: none;"></path><g><g class="mark-rule role-axis-tick" style="pointer-events: none;"><line transform="translate(0,29)" x2="-5" y2="0" style="fill: none; stroke: #888; stroke-width: 1; opacity: 1;"></line><line transform="translate(0,89)" x2="-5" y2="0" style="fill: none; stroke: #888; stroke-width: 1; opacity: 1;"></line></g><g class="mark-text role-axis-label" style="pointer-events: none;"><text text-anchor="end" transform="translate(-7,32)" style="font-family: sans-serif; font-size: 10px; fill: #000; opacity: 1;">NO</text><text text-anchor="end" transform="translate(-7,92)" style="font-family: sans-serif; font-size: 10px; fill: #000; opacity: 1;">YES</text></g><g class="mark-rule role-axis-domain" style="pointer-events: none;"><line transform="translate(0,0)" x2="0" y2="120" style="fill: none; stroke: #888; stroke-width: 1; opacity: 1;"></line></g><g class="mark-text role-axis-title" style="pointer-events: none;"><text text-anchor="middle" transform="translate(-35,60) rotate(-90) translate(0,-2)" style="font-family: sans-serif; font-size: 11px; font-weight: bold; fill: #000; opacity: 1;">Readmitted Status</text></g></g></g></g></g></g></g><g class="mark-group role-legend"><g transform="translate(855,0)"><path class="background" d="M0,0h140v136h-140Z" style="pointer-events: none; fill: none;"></path><g><g class="mark-group role-legend-entry"><g transform="translate(0,16)"><path class="background" d="M0,0h0v0h0Z" style="pointer-events: none; fill: none;"></path><g><g class="mark-rect role-legend-gradient" style="pointer-events: none;"><path d="M0,0h16v120h-16Z" style="fill: url(#gradient_0); stroke: #ddd; stroke-width: 0; opacity: 1;"></path></g><g class="mark-text role-legend-label" style="pointer-events: none;"><text text-anchor="start" transform="translate(18,118)" style="font-family: sans-serif; font-size: 10px; fill: #000; opacity: 1;">4</text><text text-anchor="start" transform="translate(18,8)" style="font-family: sans-serif; font-size: 10px; fill: #000; opacity: 1;">487</text></g></g></g></g><g class="mark-text role-legend-title" style="pointer-events: none;"><text text-anchor="start" transform="translate(0,9)" style="font-family: sans-serif; font-size: 11px; font-weight: bold; fill: #000; opacity: 1;">Count of Records</text></g></g></g></g></g></g></g></g></svg>